<svg width="79" height="23" viewBox="0 0 79 23" fill="none" xmlns="http://www.w3.org/2000/svg">
<path d="M0.140137 19L5.56014 5.28H8.06014L13.5001 19H11.4401L10.1001 15.6H3.42014L2.10014 19H0.140137ZM4.04014 13.98H9.46014L7.80014 9.68C7.76014 9.56 7.70014 9.39333 7.62014 9.18C7.54014 8.96667 7.45347 8.73333 7.36014 8.48C7.2668 8.21333 7.17347 7.94667 7.08014 7.68C6.9868 7.4 6.90014 7.14667 6.82014 6.92H6.70014C6.6068 7.18667 6.50014 7.49333 6.38014 7.84C6.26014 8.18667 6.14014 8.52667 6.02014 8.86C5.90014 9.18 5.80014 9.45333 5.72014 9.68L4.04014 13.98Z" fill="#E8E5DC"/>
<path d="M15.0129 6.5V4.54H16.7729V6.5H15.0129ZM14.5529 22.64C14.4063 22.64 14.2463 22.6267 14.0729 22.6C13.8996 22.5867 13.7329 22.56 13.5729 22.52C13.4129 22.4933 13.2796 22.46 13.1729 22.42V21.2H14.0729C14.3796 21.2 14.6129 21.1133 14.7729 20.94C14.9329 20.78 15.0129 20.5467 15.0129 20.24V8.48H16.7729V20.28C16.7729 20.68 16.7063 21.06 16.5729 21.42C16.4396 21.78 16.2129 22.0733 15.8929 22.3C15.5863 22.5267 15.1396 22.64 14.5529 22.64Z" fill="#E8E5DC"/>
<path d="M22.1061 19.24C21.7194 19.24 21.3327 19.1933 20.9461 19.1C20.5594 19.0067 20.1994 18.8533 19.8661 18.64C19.5327 18.4267 19.2661 18.1333 19.0661 17.76C18.8661 17.3733 18.7661 16.8933 18.7661 16.32C18.7661 15.6 18.9394 15.0067 19.2861 14.54C19.6327 14.0733 20.1127 13.7133 20.7261 13.46C21.3527 13.1933 22.0927 13.0133 22.9461 12.92C23.7994 12.8133 24.7261 12.76 25.7261 12.76V11.56C25.7261 11.1733 25.6594 10.84 25.5261 10.56C25.3927 10.28 25.1527 10.0667 24.8061 9.92C24.4727 9.76 23.9927 9.68 23.3661 9.68C22.7661 9.68 22.2861 9.76 21.9261 9.92C21.5794 10.0667 21.3327 10.26 21.1861 10.5C21.0527 10.74 20.9861 11.0067 20.9861 11.3V11.6H19.2861C19.2727 11.5333 19.2661 11.4667 19.2661 11.4C19.2661 11.3333 19.2661 11.2533 19.2661 11.16C19.2661 10.52 19.4394 9.98667 19.7861 9.56C20.1461 9.12 20.6461 8.79333 21.2861 8.58C21.9261 8.35333 22.6594 8.24 23.4861 8.24C24.3661 8.24 25.0994 8.36667 25.6861 8.62C26.2861 8.87333 26.7327 9.23333 27.0261 9.7C27.3327 10.1667 27.4861 10.7267 27.4861 11.38V17.08C27.4861 17.3333 27.5461 17.5133 27.6661 17.62C27.7861 17.7133 27.9327 17.76 28.1061 17.76H28.8861V18.92C28.6994 19 28.4927 19.0667 28.2661 19.12C28.0394 19.1867 27.7794 19.22 27.4861 19.22C27.1394 19.22 26.8527 19.1467 26.6261 19C26.3994 18.8667 26.2261 18.68 26.1061 18.44C25.9861 18.1867 25.9061 17.9067 25.8661 17.6H25.7261C25.4861 17.9333 25.1794 18.2267 24.8061 18.48C24.4461 18.72 24.0394 18.9067 23.5861 19.04C23.1327 19.1733 22.6394 19.24 22.1061 19.24ZM22.5461 17.76C22.9727 17.76 23.3727 17.6933 23.7461 17.56C24.1327 17.4267 24.4727 17.24 24.7661 17C25.0594 16.7467 25.2927 16.4467 25.4661 16.1C25.6394 15.7533 25.7261 15.3733 25.7261 14.96V14.08C24.6461 14.08 23.7261 14.14 22.9661 14.26C22.2061 14.38 21.6194 14.5933 21.2061 14.9C20.8061 15.2067 20.6061 15.64 20.6061 16.2C20.6061 16.56 20.6861 16.8533 20.8461 17.08C21.0061 17.3067 21.2327 17.48 21.5261 17.6C21.8194 17.7067 22.1594 17.76 22.5461 17.76Z" fill="#E8E5DC"/>
<path d="M30.3645 19V4.54H32.1245V19H30.3645Z" fill="#E8E5DC"/>
<path d="M37.4967 19.24C37.11 19.24 36.7234 19.1933 36.3367 19.1C35.95 19.0067 35.59 18.8533 35.2567 18.64C34.9234 18.4267 34.6567 18.1333 34.4567 17.76C34.2567 17.3733 34.1567 16.8933 34.1567 16.32C34.1567 15.6 34.33 15.0067 34.6767 14.54C35.0234 14.0733 35.5034 13.7133 36.1167 13.46C36.7434 13.1933 37.4834 13.0133 38.3367 12.92C39.19 12.8133 40.1167 12.76 41.1167 12.76V11.56C41.1167 11.1733 41.05 10.84 40.9167 10.56C40.7834 10.28 40.5434 10.0667 40.1967 9.92C39.8634 9.76 39.3834 9.68 38.7567 9.68C38.1567 9.68 37.6767 9.76 37.3167 9.92C36.97 10.0667 36.7234 10.26 36.5767 10.5C36.4434 10.74 36.3767 11.0067 36.3767 11.3V11.6H34.6767C34.6634 11.5333 34.6567 11.4667 34.6567 11.4C34.6567 11.3333 34.6567 11.2533 34.6567 11.16C34.6567 10.52 34.83 9.98667 35.1767 9.56C35.5367 9.12 36.0367 8.79333 36.6767 8.58C37.3167 8.35333 38.05 8.24 38.8767 8.24C39.7567 8.24 40.49 8.36667 41.0767 8.62C41.6767 8.87333 42.1234 9.23333 42.4167 9.7C42.7234 10.1667 42.8767 10.7267 42.8767 11.38V17.08C42.8767 17.3333 42.9367 17.5133 43.0567 17.62C43.1767 17.7133 43.3234 17.76 43.4967 17.76H44.2767V18.92C44.09 19 43.8834 19.0667 43.6567 19.12C43.43 19.1867 43.17 19.22 42.8767 19.22C42.53 19.22 42.2434 19.1467 42.0167 19C41.79 18.8667 41.6167 18.68 41.4967 18.44C41.3767 18.1867 41.2967 17.9067 41.2567 17.6H41.1167C40.8767 17.9333 40.57 18.2267 40.1967 18.48C39.8367 18.72 39.43 18.9067 38.9767 19.04C38.5234 19.1733 38.03 19.24 37.4967 19.24ZM37.9367 17.76C38.3634 17.76 38.7634 17.6933 39.1367 17.56C39.5234 17.4267 39.8634 17.24 40.1567 17C40.45 16.7467 40.6834 16.4467 40.8567 16.1C41.03 15.7533 41.1167 15.3733 41.1167 14.96V14.08C40.0367 14.08 39.1167 14.14 38.3567 14.26C37.5967 14.38 37.01 14.5933 36.5967 14.9C36.1967 15.2067 35.9967 15.64 35.9967 16.2C35.9967 16.56 36.0767 16.8533 36.2367 17.08C36.3967 17.3067 36.6234 17.48 36.9167 17.6C37.21 17.7067 37.55 17.76 37.9367 17.76ZM39.8967 7.18H38.3567L36.1567 4.6L36.1767 4.54H38.1567L39.8967 7.18Z" fill="#E8E5DC"/>
<path d="M50.7551 19.24C50.0485 19.24 49.4151 19.1 48.8551 18.82C48.2951 18.5267 47.8351 18.0867 47.4751 17.5H47.3351L47.1551 19H45.7551V4.54H47.5151V9.8H47.6351C47.8751 9.42667 48.1551 9.12667 48.4751 8.9C48.7951 8.67333 49.1551 8.50667 49.5551 8.4C49.9551 8.29333 50.3818 8.24 50.8351 8.24C51.6485 8.24 52.3618 8.43333 52.9751 8.82C53.5885 9.20667 54.0618 9.8 54.3951 10.6C54.7418 11.4 54.9151 12.42 54.9151 13.66C54.9151 14.9667 54.7485 16.0333 54.4151 16.86C54.0818 17.6733 53.6085 18.2733 52.9951 18.66C52.3818 19.0467 51.6351 19.24 50.7551 19.24ZM50.3351 17.7C50.9351 17.7 51.4351 17.58 51.8351 17.34C52.2485 17.1 52.5618 16.7067 52.7751 16.16C52.9885 15.6 53.0951 14.8667 53.0951 13.96V13.54C53.0951 12.66 52.9951 11.9467 52.7951 11.4C52.5951 10.84 52.2885 10.4333 51.8751 10.18C51.4618 9.91333 50.9285 9.78 50.2751 9.78C49.9018 9.78 49.5485 9.84 49.2151 9.96C48.8818 10.08 48.5818 10.2867 48.3151 10.58C48.0618 10.8733 47.8618 11.2667 47.7151 11.76C47.5818 12.2533 47.5151 12.86 47.5151 13.58V13.9C47.5151 14.7267 47.6085 15.42 47.7951 15.98C47.9951 16.54 48.3018 16.9667 48.7151 17.26C49.1418 17.5533 49.6818 17.7 50.3351 17.7Z" fill="#E8E5DC"/>
<path d="M78.0269 20.9589C73.5606 20.1837 67.7614 17.3413 66.0896 16.1725C63.0433 14.0427 61.4476 12.6228 61.0124 9.21513C60.9146 7.87408 61.4109 6.93692 62.173 6.38731C62.5376 6.12436 62.7551 5.66068 62.6048 5.23704C62.0715 3.73428 61.8425 2.3162 62.4631 0.979927C63.1884 -0.581923 65.3643 -0.155964 64.0588 1.40589C63.2182 2.41143 63.4487 4.03168 63.7976 5.11756C63.9332 5.53957 64.3477 5.77894 64.7841 5.85644C65.7681 6.03121 66.7043 6.58851 67.2501 7.51129C68.5557 10.493 68.9908 12.4808 71.3118 14.6106L71.3984 14.69C73.5012 16.6199 75.8393 18.7655 78.3057 19.9762C78.6296 20.1352 78.7132 20.5709 78.4553 20.8234C78.3417 20.9345 78.1835 20.9861 78.0269 20.9589Z" fill="white"/>
</svg>
