<svg width="18" height="21" viewBox="0 0 18 21" fill="none" xmlns="http://www.w3.org/2000/svg">
<path d="M17.0268 20.9589C12.5605 20.1837 6.76123 17.3413 5.08946 16.1725C2.04315 14.0427 0.447465 12.6228 0.0122784 9.21513C-0.085586 7.87408 0.410762 6.93692 1.17282 6.38731C1.53742 6.12436 1.755 5.66068 1.60465 5.23704C1.07132 3.73428 0.84239 2.3162 1.46295 0.979927C2.18826 -0.581923 4.36419 -0.155964 3.05863 1.40589C2.21809 2.41143 2.44858 4.03168 2.79744 5.11756C2.93302 5.53957 3.34753 5.77894 3.78394 5.85644C4.76797 6.03121 5.70416 6.58851 6.24996 7.51129C7.55556 10.493 7.9907 12.4808 10.3117 14.6106L10.3982 14.69C12.5011 16.6199 14.8392 18.7655 17.3056 19.9762C17.6295 20.1352 17.713 20.5709 17.4552 20.8234C17.3416 20.9345 17.1833 20.9861 17.0268 20.9589Z" fill="white"/>
</svg>
