<svg width="316" height="211" viewBox="0 0 316 211" fill="none" xmlns="http://www.w3.org/2000/svg">
<path d="M62.8028 66V12.0262H42V0H88.885V12.0262H76.9865V66H62.8028Z" fill="white"/>
<path d="M88.885 66V0H113.037L138 66H122.776L118.143 53.0117H102.446V66H88.885ZM102.446 41.4665H114.077L108.309 25.207C108.057 24.5015 107.741 23.6676 107.363 22.7055C107.048 21.6793 106.701 20.5569 106.323 19.3382C105.945 18.1195 105.567 16.9329 105.188 15.7784C104.873 14.5598 104.558 13.4694 104.243 12.5073H102.446C102.446 13.8863 102.446 15.2773 102.446 16.8367C102.446 18.3962 102.446 19.8994 102.446 21.551C102.446 23.4071 102.446 23.9082 102.446 25.207V41.4665Z" fill="white"/>
<path d="M37.1436 244V44.4606H-40V0H133.865V44.4606H89.7415V244H37.1436Z" fill="white" fill-opacity="0.1"/>
<path d="M133.865 244V0H223.428L316 244H259.545L242.363 195.983H184.155V244H133.865ZM184.155 153.3H227.285L205.895 93.1895C204.96 90.5812 203.791 87.4985 202.389 83.9417C201.22 80.1477 199.934 75.9981 198.531 71.4927C197.129 66.9874 195.726 62.6006 194.324 58.3324C193.155 53.827 191.986 49.7959 190.817 46.2391H184.155C184.155 51.3373 184.155 56.4798 184.155 62.2449C184.155 68.01 184.155 73.5676 184.155 79.6735C184.155 86.5353 184.155 88.3878 184.155 93.1895V153.3Z" fill="white" fill-opacity="0.1"/>
</svg>
