<svg width="294" height="244" viewBox="0 0 294 244" fill="none" xmlns="http://www.w3.org/2000/svg">
<path d="M77.1436 244V44.4606H0V0L173.865 0V44.4606H129.742V244H77.1436Z" fill="#1E1E1E" fill-opacity="0.1"/>
<path d="M173.865 244V122V0L263.428 0L356 244H299.545L282.363 195.983H224.155V244H173.865ZM224.155 153.3H267.285L245.895 93.1895C244.96 90.5812 243.791 87.4985 242.389 83.9417C241.22 80.1477 239.934 75.9981 238.531 71.4927C237.129 66.9874 235.726 62.6006 234.324 58.3324C233.155 53.827 231.986 49.7959 230.817 46.2391H224.155C224.155 51.3373 224.155 56.4798 224.155 62.2449C224.155 68.01 224.155 73.5676 224.155 79.6735C224.155 86.5353 224.155 88.3878 224.155 93.1895V153.3Z" fill="#1E1E1E" fill-opacity="0.1"/>
</svg>
