<svg width="316" height="210" viewBox="0 0 316 210" fill="none" xmlns="http://www.w3.org/2000/svg">
<path d="M37.1436 244V44.4606H-40V0L133.865 0V44.4606H89.7415V244H37.1436Z" fill="white" fill-opacity="0.1"/>
<path d="M133.865 244V122V0L223.428 0L316 244H259.545L242.363 195.983H184.155V244H133.865ZM184.155 153.3H227.285L205.895 93.1895C204.96 90.5812 203.791 87.4985 202.389 83.9417C201.22 80.1477 199.934 75.9981 198.531 71.4927C197.129 66.9874 195.726 62.6006 194.324 58.3324C193.155 53.827 191.986 49.7959 190.817 46.2391H184.155C184.155 51.3373 184.155 56.4798 184.155 62.2449C184.155 68.01 184.155 73.5676 184.155 79.6735C184.155 86.5353 184.155 88.3878 184.155 93.1895V153.3Z" fill="white" fill-opacity="0.1"/>
</svg>
