<svg width="76" height="52" viewBox="0 0 76 52" fill="none" xmlns="http://www.w3.org/2000/svg">
<path d="M16.4689 52V9.47522H0V0L37.1173 0V9.47522H27.6976V52H16.4689Z" fill="white"/>
<path d="M37.1173 52V26V0L56.2374 0L76 52H63.9478L60.2797 41.7668H47.8532V52H37.1173ZM47.8532 32.6706H57.0608L52.4944 19.8601C52.2948 19.3042 52.0453 18.6472 51.7459 17.8892C51.4963 17.0807 51.2219 16.1963 50.9224 15.2362C50.623 14.276 50.3236 13.3411 50.0241 12.4315C49.7746 11.4713 49.5251 10.6122 49.2755 9.85423H47.8532C47.8532 10.9407 47.8532 12.0367 47.8532 13.2653C47.8532 14.4939 47.8532 15.6783 47.8532 16.9796C47.8532 18.4419 47.8532 18.8367 47.8532 19.8601V32.6706Z" fill="white"/>
</svg>
